<?xml version="1.0" standalone="no"?>
<!DOCTYPE svg PUBLIC "-//W3C//DTD SVG 20010904//EN"
 "http://www.w3.org/TR/2001/REC-SVG-20010904/DTD/svg10.dtd">
<svg version="1.0" xmlns="http://www.w3.org/2000/svg"
 width="992.000000pt" height="992.000000pt" viewBox="0 0 992.000000 992.000000"
 preserveAspectRatio="xMidYMid meet">
<metadata>
Created by potrace 1.14, written by Peter Selinger 2001-2017
</metadata>
<g transform="translate(0.000000,992.000000) scale(0.100000,-0.100000)"
fill="#000000" stroke="none">
<path d="M2138 9619 c-10 -7 0 -52 24 -109 14 -32 23 -57 36 -95 23 -67 94
-261 102 -280 14 -32 120 -325 138 -380 9 -27 19 -52 22 -55 3 -3 6 -9 7 -15
3 -14 42 -126 52 -150 20 -45 61 -156 61 -164 0 -5 8 -26 17 -47 9 -22 17 -41
17 -44 1 -3 9 -27 19 -55 43 -116 59 -161 67 -180 22 -56 101 -272 104 -285 2
-9 18 -51 34 -95 98 -259 124 -331 125 -342 0 -7 3 -13 7 -13 4 0 7 -6 7 -12
0 -13 24 -79 124 -344 27 -72 49 -136 49 -143 0 -6 7 -23 16 -36 9 -14 14 -25
11 -25 -3 0 8 -33 24 -72 16 -40 31 -80 33 -88 2 -8 8 -28 15 -45 6 -16 22
-59 36 -95 13 -36 46 -126 73 -200 28 -74 56 -153 63 -175 7 -22 17 -44 21
-50 4 -5 8 -14 8 -21 0 -6 8 -29 17 -50 9 -22 17 -44 19 -49 1 -6 18 -56 39
-110 21 -55 38 -104 40 -110 1 -5 7 -21 13 -35 11 -26 73 -196 113 -310 12
-36 25 -69 29 -75 7 -10 21 -61 19 -70 0 -4 6 -16 14 -28 8 -12 20 -40 27 -62
15 -47 88 -251 100 -280 9 -19 51 -136 132 -360 22 -60 44 -119 49 -130 6 -12
11 -27 13 -35 2 -8 7 -26 13 -40 16 -41 55 -144 58 -155 1 -5 5 -17 8 -25 3
-8 31 -85 62 -170 31 -85 60 -164 65 -175 4 -11 18 -47 30 -80 12 -33 26 -68
31 -77 5 -10 9 -25 9 -33 0 -8 4 -23 10 -33 5 -9 44 -111 86 -227 42 -115 90
-246 106 -290 16 -44 36 -96 43 -117 7 -20 11 -39 8 -42 -4 -3 -1 -6 5 -6 7 0
11 -3 10 -7 -1 -8 5 -28 22 -68 24 -55 84 -231 82 -237 -1 -5 2 -8 6 -8 5 0 9
-6 9 -12 0 -7 17 -58 37 -113 21 -55 46 -122 56 -150 10 -27 21 -59 26 -70 4
-11 8 -24 10 -30 2 -5 26 -71 54 -145 28 -74 52 -139 54 -145 2 -5 6 -17 9
-25 3 -8 15 -42 26 -75 12 -33 26 -69 31 -80 5 -11 21 -54 35 -95 14 -41 28
-82 32 -90 3 -8 7 -18 8 -22 2 -5 4 -10 5 -13 1 -3 3 -9 4 -14 0 -5 4 -13 9
-17 4 -4 7 -14 7 -22 0 -8 6 -28 14 -45 8 -18 33 -84 56 -147 50 -137 94 -257
105 -285 4 -11 9 -26 11 -33 1 -7 12 -38 24 -70 13 -31 26 -66 30 -77 12 -31
44 -119 90 -245 22 -63 47 -129 54 -146 l14 -30 1078 2 c722 1 1092 5 1119 12
22 6 41 9 43 7 3 -2 18 3 34 11 16 8 33 12 38 9 6 -3 10 -1 10 6 0 7 3 10 6 7
7 -7 55 12 139 54 220 111 404 335 472 573 38 137 46 318 18 450 -9 44 -21 87
-25 96 -5 9 -12 31 -15 50 -3 18 -11 39 -18 47 -6 8 -12 22 -14 31 -1 9 -23
71 -48 137 -26 65 -48 126 -50 134 -2 8 -4 16 -5 18 -2 1 -3 5 -5 10 -1 4 -7
20 -13 35 -7 16 -12 34 -12 41 0 6 -4 16 -10 22 -5 5 -11 18 -13 29 -2 11 -8
31 -14 45 -6 14 -23 59 -38 100 -15 41 -30 84 -35 95 -5 11 -14 38 -21 60 -7
22 -16 45 -20 50 -5 8 -19 52 -23 75 -1 3 -4 10 -8 16 -4 6 -14 33 -23 60 -9
27 -20 58 -25 69 -5 11 -27 72 -50 135 -22 63 -44 124 -49 135 -11 25 -44 116
-47 130 -2 6 -12 35 -24 65 -35 92 -50 132 -80 215 -54 151 -198 544 -207 565
-3 8 -7 18 -8 23 -2 4 -4 9 -5 12 -1 3 -3 8 -5 13 -1 4 -7 20 -13 35 -7 16
-12 32 -12 37 0 5 -6 24 -14 42 -22 51 -57 144 -60 159 -1 8 -10 31 -19 53 -9
21 -17 44 -17 50 0 7 -4 16 -10 22 -5 5 -11 18 -13 29 -2 11 -8 29 -14 40 -6
11 -12 25 -13 30 -5 21 -49 145 -76 215 -20 53 -116 314 -118 325 -2 6 -7 19
-11 30 -22 54 -46 119 -75 205 -18 52 -36 97 -39 100 -3 3 -7 12 -9 20 -3 16
-97 281 -112 315 -5 11 -30 79 -55 150 -25 72 -50 139 -54 150 -5 11 -9 25
-11 30 -1 6 -6 18 -12 28 -5 10 -11 26 -13 35 -2 9 -30 85 -61 167 -31 83 -59
161 -61 175 -3 14 -10 31 -16 38 -6 8 -12 23 -14 34 -2 11 -9 35 -17 52 -17
38 -28 68 -31 82 -3 12 -82 229 -95 259 -5 11 -25 65 -44 120 -20 55 -41 108
-46 117 -6 10 -10 24 -10 33 0 8 -7 29 -14 47 -8 18 -34 85 -57 148 -23 63
-45 124 -49 135 -4 11 -13 36 -20 55 -7 19 -16 44 -20 55 -12 29 -42 111 -100
270 -28 77 -54 147 -57 155 -3 8 -7 17 -7 20 -1 3 -6 19 -13 35 -6 17 -30 82
-53 145 -22 63 -45 123 -50 132 -6 10 -10 25 -10 33 0 8 -4 23 -10 33 -8 16
-99 254 -104 277 -2 6 -6 19 -10 30 -16 43 -19 50 -22 60 -1 6 -17 48 -35 95
-71 190 -92 246 -96 268 -3 12 -9 25 -14 28 -5 3 -9 12 -9 20 0 8 -6 29 -13
47 -8 18 -14 34 -15 37 0 3 -10 30 -22 60 -12 30 -26 66 -30 80 -13 39 -56
156 -71 189 l-13 30 -138 3 c-76 2 -147 1 -158 -2 -11 -3 -65 -3 -120 0 -55 3
-109 3 -120 0 -12 -3 -173 -3 -360 0 -187 3 -348 3 -360 0 -11 -3 -65 -3 -120
0 -55 3 -109 3 -120 0 -12 -3 -173 -3 -360 0 -187 3 -348 3 -360 0 -11 -3 -65
-3 -120 0 -55 3 -109 3 -120 0 -12 -3 -173 -3 -360 0 -187 3 -349 3 -360 0
-11 -3 -57 -3 -101 0 -45 3 -86 2 -91 -1z"/>
<path d="M7080 9448 c0 -6 24 -77 54 -157 30 -81 73 -198 95 -261 23 -63 46
-124 51 -135 5 -11 16 -40 24 -65 8 -25 19 -56 24 -70 14 -34 25 -63 27 -75 2
-5 12 -32 22 -60 22 -55 32 -82 34 -93 1 -4 15 -38 31 -76 15 -38 26 -71 23
-74 -2 -3 2 -17 10 -31 7 -14 25 -57 39 -96 76 -211 117 -322 126 -337 6 -10
10 -26 10 -36 0 -10 4 -22 8 -27 4 -6 16 -35 26 -65 10 -30 24 -68 31 -85 19
-46 28 -69 31 -85 2 -8 9 -30 18 -50 15 -38 28 -70 31 -82 2 -5 3 -9 5 -10 1
-2 3 -10 5 -18 4 -16 59 -163 80 -215 7 -16 22 -59 35 -95 12 -36 34 -94 47
-129 14 -35 26 -71 28 -80 2 -9 18 -52 35 -96 18 -44 38 -100 46 -125 8 -25
19 -54 24 -65 11 -23 80 -215 83 -230 1 -5 4 -12 7 -15 4 -4 46 -118 53 -145
2 -5 13 -37 26 -70 44 -116 83 -220 93 -255 5 -19 13 -39 16 -45 4 -5 7 -14 9
-20 1 -5 30 -84 64 -175 34 -91 62 -171 62 -177 0 -7 4 -13 9 -13 4 0 7 -3 6
-7 0 -5 2 -17 6 -28 4 -11 21 -58 38 -105 16 -47 37 -103 47 -125 9 -21 17
-43 17 -47 1 -4 3 -10 4 -13 1 -3 3 -8 5 -12 1 -5 7 -21 13 -36 7 -16 12 -36
12 -45 0 -22 15 -1 65 93 89 165 149 301 208 475 36 105 96 337 89 344 -3 3 0
6 7 6 7 0 10 4 7 9 -3 5 1 42 8 83 32 159 40 272 40 523 0 187 -5 298 -18 375
-5 26 -13 80 -22 140 -3 19 -7 42 -10 50 -3 8 -8 29 -10 45 -8 63 -38 177 -84
320 -32 99 -43 129 -81 213 -10 23 -19 49 -19 57 0 8 -4 15 -10 15 -5 0 -10 7
-10 15 0 15 -53 120 -125 250 -53 95 -200 314 -250 372 -5 6 -26 30 -45 54
-97 117 -225 249 -326 337 -27 23 -58 50 -69 60 -41 38 -155 122 -164 122 -5
0 -11 4 -13 9 -6 18 -240 162 -372 231 -75 38 -137 69 -139 69 -1 -1 -27 10
-57 24 -49 21 -125 50 -140 52 -3 0 -15 6 -27 13 -18 10 -23 10 -23 0z"/>
<path d="M817 9037 c-3 -8 -1 -19 5 -25 6 -6 6 -12 -1 -16 -7 -4 -7 -15 -1
-31 6 -15 6 -27 -1 -30 -5 -4 -7 -10 -4 -15 4 -7 7 -258 4 -370 -1 -8 -1 -80
0 -160 0 -80 0 -152 0 -160 0 -8 0 -188 0 -400 0 -212 0 -392 0 -400 0 -8 0
-188 0 -400 0 -212 0 -392 -1 -400 0 -8 0 -80 1 -160 0 -80 0 -152 0 -160 0
-8 0 -116 0 -240 0 -124 0 -232 0 -240 0 -8 0 -152 0 -320 0 -168 0 -312 0
-320 -1 -8 0 -116 0 -240 0 -124 0 -232 0 -240 -1 -8 -1 -80 0 -160 0 -80 0
-152 0 -160 0 -8 0 -188 0 -400 0 -212 0 -392 0 -400 0 -8 0 -188 0 -400 0
-212 0 -392 -1 -400 0 -8 0 -80 1 -160 0 -80 0 -152 0 -160 0 -8 0 -116 0
-240 0 -124 0 -232 0 -240 0 -8 0 -152 0 -320 0 -168 0 -312 0 -320 -1 -8 0
-116 0 -240 0 -124 0 -232 -1 -240 -3 -42 15 -154 32 -201 37 -100 116 -204
205 -267 31 -22 129 -62 190 -78 29 -7 2763 -15 2777 -7 3 2 -3 27 -14 56 -10
28 -21 57 -22 62 -6 21 -18 51 -27 67 -5 10 -9 22 -9 27 0 5 -5 22 -12 38 -6
15 -12 30 -13 33 -1 3 -7 18 -13 33 -7 16 -12 31 -12 35 0 6 -43 126 -60 167
-17 42 -23 60 -22 67 1 5 -2 8 -6 8 -4 0 -8 8 -9 18 -1 15 -30 96 -63 177 -17
41 -42 111 -56 155 -8 25 -19 54 -24 65 -7 19 -20 52 -67 180 -10 28 -18 52
-19 55 0 3 -5 16 -11 30 -6 14 -17 45 -26 70 -8 25 -22 63 -30 85 -16 42 -23
64 -27 80 -1 6 -7 19 -13 30 -6 11 -12 22 -12 25 0 3 -5 19 -12 35 -6 17 -28
75 -48 130 -19 55 -39 107 -42 115 -3 8 -7 17 -7 20 -1 5 -31 89 -43 120 -4 8
-7 18 -8 23 -2 4 -4 9 -5 12 -1 3 -3 8 -5 13 -1 4 -7 20 -13 35 -7 16 -12 31
-12 34 0 3 -6 19 -13 36 -8 18 -22 55 -31 82 -55 155 -68 192 -78 215 -20 47
-27 65 -33 90 -4 14 -13 39 -20 55 -8 17 -37 95 -65 175 -28 80 -56 154 -61
165 -6 12 -11 27 -13 35 -1 8 -7 24 -13 35 -6 11 -11 22 -11 25 -1 6 0 4 -52
145 -22 61 -40 113 -40 118 0 4 -9 26 -19 50 -10 23 -26 62 -34 87 -15 45 -47
133 -65 180 -5 14 -11 30 -12 35 -2 6 -10 26 -18 44 -7 19 -15 42 -17 50 -2 9
-17 52 -35 96 -18 44 -33 87 -35 95 -2 8 -20 58 -40 110 -20 52 -38 100 -39
105 -4 14 -16 46 -28 75 -6 14 -12 30 -14 35 -3 15 -79 224 -94 260 -5 11 -27
72 -50 135 -22 63 -45 124 -50 135 -5 11 -16 40 -24 65 -29 87 -53 150 -59
157 -4 3 -7 12 -7 19 0 7 -5 25 -12 41 -6 15 -12 30 -13 33 -1 3 -7 18 -13 33
-7 16 -12 31 -12 35 0 4 -18 53 -39 110 -22 56 -37 102 -35 102 3 0 -3 11 -12
25 -9 14 -13 25 -9 25 4 0 3 6 -2 13 -6 6 -22 46 -36 87 -14 41 -51 143 -82
225 -31 83 -57 155 -59 162 -1 7 -5 16 -9 19 -4 4 -7 17 -7 29 0 11 -4 25 -9
31 -4 5 -20 43 -35 84 -31 85 -48 131 -141 385 -36 99 -69 187 -72 195 -3 8
-7 17 -8 20 0 3 -9 30 -20 60 -11 30 -18 58 -17 63 1 4 -2 7 -6 7 -4 0 -14 21
-21 48 -8 26 -18 54 -22 62 -4 8 -25 65 -47 125 -97 269 -123 341 -132 357 -6
10 -10 22 -10 27 0 5 -5 22 -12 38 -6 15 -12 31 -13 36 -2 4 -4 9 -5 12 -1 3
-3 8 -5 13 -1 4 -4 14 -8 22 -3 8 -13 38 -23 65 -9 28 -21 54 -26 60 -4 5 -8
17 -8 27 0 10 -4 26 -9 36 -5 9 -18 42 -29 72 -42 115 -90 246 -98 265 -4 11
-8 25 -9 30 -1 6 -7 21 -13 35 -14 30 -82 216 -82 223 0 2 -8 22 -17 43 -9 22
-17 41 -18 44 -1 3 -5 18 -10 34 -4 16 -14 41 -21 55 -8 14 -14 33 -14 42 0 9
-3 19 -7 23 -7 7 -31 69 -38 98 -2 10 -8 25 -13 34 -8 14 -10 14 -15 1z"/>
</g>
</svg>
