<?xml version="1.0" encoding="UTF-8" standalone="no"?>
<!DOCTYPE svg PUBLIC "-//W3C//DTD SVG 1.1//EN" "http://www.w3.org/Graphics/SVG/1.1/DTD/svg11.dtd">
<svg width="100%" height="100%" viewBox="0 0 17 17" version="1.1" xmlns="http://www.w3.org/2000/svg" xmlns:xlink="http://www.w3.org/1999/xlink" xml:space="preserve" xmlns:serif="http://www.serif.com/" style="fill-rule:evenodd;clip-rule:evenodd;stroke-linecap:round;stroke-linejoin:round;stroke-miterlimit:1.5;">
    <g transform="matrix(1,0,0,1,-392.25,-360.804)">
        <g transform="matrix(0.628125,0.628125,-0.628125,0.628125,404.541,308.666)">
            <path d="M38.874,47.015C38.874,46.082 39.63,45.326 40.562,45.326C42.83,45.326 46.838,45.326 49.106,45.326C50.038,45.326 50.794,46.082 50.794,47.015C50.794,49.283 50.794,53.29 50.794,55.558C50.794,56.491 50.038,57.247 49.106,57.247C46.838,57.247 42.83,57.247 40.562,57.247C39.63,57.247 38.874,56.491 38.874,55.558L38.874,47.015Z" style="fill:none;"/>
            <clipPath id="_clip1">
                <path d="M38.874,47.015C38.874,46.082 39.63,45.326 40.562,45.326C42.83,45.326 46.838,45.326 49.106,45.326C50.038,45.326 50.794,46.082 50.794,47.015C50.794,49.283 50.794,53.29 50.794,55.558C50.794,56.491 50.038,57.247 49.106,57.247C46.838,57.247 42.83,57.247 40.562,57.247C39.63,57.247 38.874,56.491 38.874,55.558L38.874,47.015Z"/>
            </clipPath>
            <g clip-path="url(#_clip1)">
                <g transform="matrix(0.868101,-0.868101,0.651075,0.651075,-36.3986,63.809)">
                    <path d="M54,49L54,53" style="fill:none;stroke:rgb(252, 179, 174);stroke-width:1.35px;"/>
                </g>
                <g transform="matrix(0.868101,-0.868101,0.651075,0.651075,-34.6624,65.5452)">
                    <path d="M53.35,53C53.35,52.522 53.641,52.133 54,52.133C54.359,52.133 54.65,52.522 54.65,53C54.65,53.478 54.359,53.867 54,53.867C53.641,53.867 53.35,53.478 53.35,53Z" style="fill:rgb(252, 179, 174);"/>
                </g>
            </g>
            <path d="M38.874,47.015C38.874,46.082 39.63,45.326 40.562,45.326C42.83,45.326 46.838,45.326 49.106,45.326C50.038,45.326 50.794,46.082 50.794,47.015C50.794,49.283 50.794,53.29 50.794,55.558C50.794,56.491 50.038,57.247 49.106,57.247C46.838,57.247 42.83,57.247 40.562,57.247C39.63,57.247 38.874,56.491 38.874,55.558L38.874,47.015Z" style="fill:none;stroke:rgb(252, 179, 174);stroke-width:1.69px;"/>
        </g>
    </g>
</svg>
