<?xml version="1.0" encoding="UTF-8" standalone="no"?>
<!DOCTYPE svg PUBLIC "-//W3C//DTD SVG 1.1//EN" "http://www.w3.org/Graphics/SVG/1.1/DTD/svg11.dtd">
<svg width="90%" height="90%" viewBox="0 0 20 20" version="1.1" xmlns="http://www.w3.org/2000/svg" xmlns:xlink="http://www.w3.org/1999/xlink" xml:space="preserve" xmlns:serif="http://www.serif.com/" style="fill-rule:evenodd;clip-rule:evenodd;stroke-linecap:round;stroke-linejoin:round;stroke-miterlimit:1.5;">
    <g transform="matrix(1,0,0,1,-413.152,-359.758)">
        <g transform="matrix(1.09055,0,0,1.09055,375.508,312.524)">
            <path d="M41.809,46.063C42.055,45.638 42.509,45.375 43,45.375C43.491,45.375 43.945,45.638 44.191,46.063C45.658,48.604 48.136,52.896 49.603,55.437C49.849,55.862 49.849,56.387 49.603,56.812C49.357,57.238 48.903,57.5 48.412,57.5L37.588,57.5C37.097,57.5 36.643,57.238 36.397,56.812C36.151,56.387 36.151,55.862 36.397,55.437C37.864,52.896 40.342,48.604 41.809,46.063Z" style="fill:none;"/>
            <clipPath id="_clip1">
                <path d="M41.809,46.063C42.055,45.638 42.509,45.375 43,45.375C43.491,45.375 43.945,45.638 44.191,46.063C45.658,48.604 48.136,52.896 49.603,55.437C49.849,55.862 49.849,56.387 49.603,56.812C49.357,57.238 48.903,57.5 48.412,57.5L37.588,57.5C37.097,57.5 36.643,57.238 36.397,56.812C36.151,56.387 36.151,55.862 36.397,55.437C37.864,52.896 40.342,48.604 41.809,46.063Z"/>
            </clipPath>
            <g clip-path="url(#_clip1)">
                <g transform="matrix(1,0,0,0.75,-11,13.0851)">
                    <path d="M54,49L54,53" style="fill:none;stroke:rgb(255, 203, 153);stroke-width:1.35px;"/>
                </g>
                <g transform="matrix(1,0,0,0.75,-11,15.0851)">
                    <path d="M53.35,53C53.35,52.522 53.641,52.133 54,52.133C54.359,52.133 54.65,52.522 54.65,53C54.65,53.478 54.359,53.867 54,53.867C53.641,53.867 53.35,53.478 53.35,53Z" style="fill:rgb(255, 203, 153);"/>
                </g>
            </g>
            <path d="M41.809,46.063C42.055,45.638 42.509,45.375 43,45.375C43.491,45.375 43.945,45.638 44.191,46.063C45.658,48.604 48.136,52.896 49.603,55.437C49.849,55.862 49.849,56.387 49.603,56.812C49.357,57.238 48.903,57.5 48.412,57.5L37.588,57.5C37.097,57.5 36.643,57.238 36.397,56.812C36.151,56.387 36.151,55.862 36.397,55.437C37.864,52.896 40.342,48.604 41.809,46.063Z" style="fill:none;stroke:rgb(255, 203, 153);stroke-width:1.38px;"/>
        </g>
    </g>
</svg>
