<?xml version="1.0" encoding="UTF-8" standalone="no"?>
<!DOCTYPE svg PUBLIC "-//W3C//DTD SVG 1.1//EN" "http://www.w3.org/Graphics/SVG/1.1/DTD/svg11.dtd">
<svg width="100%" height="100%" viewBox="0 0 1025 1121" version="1.1" xmlns="http://www.w3.org/2000/svg" xmlns:xlink="http://www.w3.org/1999/xlink" xml:space="preserve" xmlns:serif="http://www.serif.com/" style="fill-rule:evenodd;clip-rule:evenodd;stroke-linejoin:round;stroke-miterlimit:2;">
    <g transform="matrix(1,0,0,1,-262.904,0.5)">
        <g transform="matrix(1.85586,0,0,1.85586,-252.524,-3551.81)">
            <path d="M336.64,1913.84L518.243,2409.12L630.555,2409.12C650.861,2409.12 669.887,2399.2 681.515,2382.55C693.142,2365.91 695.905,2344.63 688.914,2325.56C637.149,2184.38 537.949,1913.84 537.949,1913.84L336.64,1913.84ZM296.044,1921.08C293.943,1922.51 291.964,1924.15 290.137,1925.98C282.366,1933.75 278,1944.29 278,1955.28C278,2048.6 278,2274.36 278,2367.68C278,2378.67 282.366,2389.21 290.137,2396.98C297.909,2404.75 308.449,2409.12 319.439,2409.12L474.993,2409.12L296.044,1921.08ZM581.889,1915.72C661.171,1927.78 722,1996.31 722,2078.93C722,2120.37 706.705,2158.25 681.453,2187.26L581.889,1915.72ZM336.64,1913.84L336.482,1913.85L336.479,1913.84L336.64,1913.84Z" style="fill:rgb(242,242,242);stroke:rgb(242,242,242);stroke-width:0.54px;"/>
        </g>
    </g>
</svg>
