<?xml version="1.0" encoding="UTF-8" standalone="no"?><!DOCTYPE svg PUBLIC "-//W3C//DTD SVG 1.1//EN" "http://www.w3.org/Graphics/SVG/1.1/DTD/svg11.dtd"><svg width="100%" height="100%" viewBox="0 0 512 512" version="1.1" xmlns="http://www.w3.org/2000/svg" xmlns:xlink="http://www.w3.org/1999/xlink" xml:space="preserve" xmlns:serif="http://www.serif.com/" style="fill-rule:evenodd;clip-rule:evenodd;stroke-linejoin:round;stroke-miterlimit:2;"><rect id="Artboard1" x="0" y="0" width="512" height="512" style="fill:none;"/><g id="Artboard11" serif:id="Artboard1"><g><g id="Sci-fi-or-Bust--Color-" serif:id="Sci-fi or Bust (Color)"><g id="Sci-Fi"><path id="Shadow--Sci-fi-" serif:id="Shadow (Sci-fi)" d="M72.18,311.716c-0.301,-0.114 -0.594,-0.253 -0.876,-0.416l-55.253,-31.9c-1.386,-0.8 -2.398,-2.119 -2.812,-3.665l-0,-0.001c-0.415,-1.546 -0.198,-3.194 0.603,-4.58l31.9,-55.253c0.8,-1.386 2.119,-2.398 3.665,-2.813l234.755,-62.902c4.163,-1.115 8.386,-0.376 11.792,1.71l12.471,7.084c3.512,1.995 6.078,5.315 7.123,9.216l21.045,78.538c0.862,3.22 -1.049,6.531 -4.269,7.394l-243.395,65.217c-1.546,0.414 -3.194,0.197 -4.58,-0.603l-12.169,-7.026Z"/><path id="Color--Sci-fi-" serif:id="Color (Sci-fi)" d="M315.114,230.717l-77.481,20.761c-6.493,1.739 -10.857,7.458 -11.171,13.829l-152.14,40.765l-55.252,-31.9l-0,-0l31.9,-55.253l234.754,-62.902c4.831,-1.294 9.796,1.572 11.09,6.403l18.3,68.297Z" style="fill:#40a1f2;"/><g id="Text--Sci-Fi-" serif:id="Text (Sci-Fi)"><path d="M125.897,268.988c0.75,2.801 0.379,5.494 -1.114,8.08c-1.532,2.563 -3.698,4.22 -6.498,4.971l-46.115,12.356l-3.022,-11.278l44.517,-11.928c0.426,-0.114 0.59,-0.354 0.492,-0.719l-3.755,-14.017c-0.115,-0.426 -0.385,-0.582 -0.811,-0.468l-37.355,10.009c-1.977,0.53 -3.852,0.282 -5.626,-0.743c-1.774,-1.026 -2.926,-2.527 -3.456,-4.506l-5.432,-20.272c-0.743,-2.77 -0.386,-5.459 1.068,-8.067c1.515,-2.625 3.658,-4.308 6.428,-5.05l46.206,-12.381l3.021,11.277l-44.653,11.965c-0.335,0.09 -0.445,0.349 -0.331,0.776l3.768,14.059c0.098,0.367 0.314,0.505 0.649,0.415l37.44,-10.032c1.948,-0.522 3.829,-0.259 5.643,0.788c1.814,1.047 2.982,2.545 3.504,4.493l5.432,20.272Z" style="fill:#fff;fill-rule:nonzero;"/><path d="M146.639,274.441c-2.801,0.751 -5.49,0.395 -8.068,-1.068c-2.555,-1.501 -4.208,-3.652 -4.958,-6.452l-4.796,-17.898c-0.742,-2.77 -0.386,-5.459 1.068,-8.067c1.515,-2.625 3.658,-4.308 6.428,-5.05l28.308,-7.585l2.606,9.725l-28.308,7.585c-0.365,0.098 -0.491,0.36 -0.377,0.786l4.796,17.898c0.098,0.365 0.329,0.499 0.695,0.401l28.308,-7.585l2.606,9.725l-28.308,7.585Z" style="fill:#fff;fill-rule:nonzero;"/><path d="M180.791,265.29l-10.326,-38.535l9.725,-2.606l10.326,38.535l-9.725,2.606Zm-11.711,-43.706l-2.606,-9.725l9.725,-2.606l2.606,9.726l-9.725,2.605Z" style="fill:#fff;fill-rule:nonzero;"/><path d="M189.908,232.07l-2.606,-9.725l33.148,-8.882l2.606,9.725l-33.148,8.882Z" style="fill:#fff;fill-rule:nonzero;"/><path d="M237.281,191.675c-0.367,0.098 -0.497,0.346 -0.39,0.742l4.134,15.431l27.167,-7.279l2.606,9.725l-27.167,7.279l6.531,24.372l-9.726,2.606l-6.53,-24.372l-6.21,1.664l-2.605,-9.725l6.209,-1.664l-4.123,-15.387c-0.742,-2.77 -0.386,-5.459 1.068,-8.067c1.516,-2.624 3.673,-4.312 6.474,-5.062l11.14,-2.985l2.606,9.725l-11.184,2.997Z" style="fill:#fff;fill-rule:nonzero;"/><path d="M267.603,237.272l-9.136,-34.097l9.725,-2.606l9.136,34.097l-9.725,2.606Zm-10.522,-39.267l-2.606,-9.726l9.726,-2.606l2.606,9.726l-9.726,2.606Z" style="fill:#fff;fill-rule:nonzero;"/></g></g><g id="Or"><path id="Shadow--Or-" serif:id="Shadow (Or)" d="M145.342,351.411c-1.504,-5.612 -12.957,-48.357 -12.957,-48.357l102.024,-27.337l16.785,62.641c0,0 8.534,-2.287 -87.108,23.341c-10.746,2.879 -17.241,-4.677 -18.744,-10.288Z"/><g id="Label--Or-" serif:id="Label (Or)"><path d="M177.552,309.371c-0.078,-0.29 -0.261,-0.396 -0.55,-0.318l-22.181,5.943c-0.227,0.061 -0.302,0.236 -0.224,0.525l7.37,27.508c0.067,0.248 0.214,0.342 0.441,0.281l22.18,-5.943c0.289,-0.078 0.401,-0.241 0.334,-0.489l-7.37,-27.507Zm15.335,26.502c0.509,1.9 0.257,3.728 -0.756,5.482c-1.039,1.739 -2.508,2.864 -4.408,3.373l-24.318,6.516c-1.9,0.509 -3.725,0.267 -5.473,-0.725c-1.734,-1.019 -2.856,-2.478 -3.365,-4.378l-7.935,-29.615c-0.504,-1.879 -0.262,-3.704 0.725,-5.473c1.028,-1.781 2.481,-2.923 4.361,-3.427l24.318,-6.515c1.9,-0.51 3.74,-0.25 5.52,0.778c1.755,1.013 2.887,2.469 3.396,4.369l7.935,29.615Z" style="fill:#fff;fill-rule:nonzero;"/><path d="M221.014,297.726c-0.078,-0.29 -0.251,-0.399 -0.519,-0.327l-22.552,6.042l2.772,10.347l22.552,-6.043c0.269,-0.072 0.37,-0.232 0.303,-0.48l-2.556,-9.539Zm8.219,35.879l-17.344,-14.61l-9.124,2.445l4.815,17.967l-7.683,2.059l-11.687,-43.618l31.288,-8.383c1.879,-0.504 3.709,-0.241 5.49,0.787c1.78,1.028 2.923,2.481 3.426,4.361l3.121,11.647c0.504,1.88 0.241,3.71 -0.787,5.49c-1.039,1.74 -2.498,2.861 -4.377,3.365l-4.926,1.32l17.361,14.605l-9.573,2.565Z" style="fill:#fff;fill-rule:nonzero;"/></g></g><g id="Bust"><path id="Shadow--Bust-" serif:id="Shadow (Bust)" d="M252.926,348.936c-3.473,-1.913 -6.192,-5.183 -7.299,-9.315l-18.666,-69.66c-2.157,-8.051 2.621,-16.326 10.672,-18.483l185.73,-49.767c1.546,-0.414 3.194,-0.197 4.581,0.603l12.253,7.075c0.169,0.078 0.336,0.164 0.499,0.258l55.253,31.9c1.386,0.8 2.398,2.119 2.812,3.665l0,0.001c0.415,1.546 0.198,3.194 -0.603,4.581l-31.9,55.252c-0.8,1.387 -2.119,2.398 -3.665,2.813l-185.638,49.741c-3.834,1.028 -7.92,0.503 -11.37,-1.461l-12.659,-7.203Z"/><path id="Color--Bust-" serif:id="Color (Bust)" d="M232.472,268.485c-1.295,-4.831 1.572,-9.796 6.402,-11.09c29.68,-7.953 127.912,-34.274 185.73,-49.767l55.253,31.9c-0,0.001 -0,0.001 0,0.001l-31.9,55.252c-57.818,15.493 -156.05,41.814 -185.73,49.767c-4.831,1.294 -9.796,-1.573 -11.09,-6.403c-4.475,-16.702 -14.19,-52.958 -18.665,-69.66Z" style="fill:#f83e56;"/><g id="Text--Bust-" serif:id="Text (Bust)"><path d="M297.81,291.743c-0.114,-0.426 -0.385,-0.582 -0.811,-0.468l-33.193,8.894l4.074,15.204l33.193,-8.894c0.426,-0.114 0.591,-0.354 0.493,-0.719l-3.756,-14.017Zm-7.108,-26.525c-0.114,-0.428 -0.385,-0.585 -0.811,-0.47l-33.193,8.894l4.086,15.25l33.193,-8.895c0.427,-0.114 0.591,-0.354 0.492,-0.72l-3.767,-14.059Zm22.603,39.06c0.742,2.77 0.355,5.467 -1.16,8.092c-1.531,2.563 -3.682,4.216 -6.452,4.959l-46.115,12.356l-17.225,-64.287l46.115,-12.356c2.769,-0.742 5.467,-0.356 8.091,1.159c2.625,1.516 4.308,3.658 5.05,6.428l4.392,16.391c0.636,2.375 -0.055,4.501 -2.074,6.38c2.688,0.617 4.354,2.128 4.998,4.533l4.38,16.345Z" style="fill:#fff;fill-rule:nonzero;"/><path d="M349.026,305.717l-0.159,-0.593c-0.717,0.616 -1.656,1.08 -2.816,1.391l-15.608,4.182c-2.818,0.755 -5.512,0.4 -8.08,-1.065c-2.547,-1.503 -4.195,-3.655 -4.945,-6.456l-7.573,-28.262l9.725,-2.606l7.573,28.262c0.098,0.366 0.329,0.499 0.695,0.402l17.943,-4.808c0.426,-0.115 0.59,-0.354 0.493,-0.72l-7.573,-28.262l9.725,-2.606l10.325,38.536l-9.725,2.605Z" style="fill:#fff;fill-rule:nonzero;"/><path d="M397.854,281.644c0.749,2.795 0.377,5.484 -1.117,8.066c-1.533,2.56 -3.699,4.215 -6.5,4.965l-28.171,7.548l-2.606,-9.725l28.171,-7.548c0.487,-0.131 0.641,-0.531 0.462,-1.2c-0.653,-2.436 -1.222,-3.588 -1.709,-3.457l-21.003,5.627c-1.979,0.53 -3.856,0.283 -5.631,-0.742c-1.775,-1.025 -2.928,-2.527 -3.458,-4.505l-1.774,-6.621c-0.742,-2.77 -0.386,-5.459 1.068,-8.067c1.515,-2.624 3.658,-4.308 6.428,-5.05l31.469,-8.432l2.606,9.725l-31.469,8.432c-0.457,0.123 -0.586,0.553 -0.389,1.29c0.643,2.398 1.192,3.536 1.649,3.413l21.048,-5.64c1.948,-0.522 3.829,-0.26 5.642,0.784c1.813,1.045 2.985,2.555 3.514,4.529l1.77,6.608Z" style="fill:#fff;fill-rule:nonzero;"/><path d="M421.674,286.252c-2.831,0.758 -5.535,0.406 -8.113,-1.056c-2.555,-1.502 -4.208,-3.652 -4.959,-6.453l-4.967,-18.537l-10.753,2.882l-2.606,-9.726l10.754,-2.881l-4.808,-17.944l9.725,-2.605l4.808,17.943l7.762,-2.08l2.605,9.726l-7.761,2.079l4.967,18.538c0.097,0.365 0.33,0.498 0.696,0.4l11.185,-2.997l2.605,9.725l-11.14,2.986Z" style="fill:#fff;fill-rule:nonzero;"/></g></g></g></g></g></svg>