<?xml version="1.0" encoding="UTF-8" standalone="no"?>
<!DOCTYPE svg PUBLIC "-//W3C//DTD SVG 1.1//EN" "http://www.w3.org/Graphics/SVG/1.1/DTD/svg11.dtd">
<svg width="100%" height="100%" viewBox="0 0 16 16" version="1.1" xmlns="http://www.w3.org/2000/svg" xmlns:xlink="http://www.w3.org/1999/xlink" xml:space="preserve" xmlns:serif="http://www.serif.com/" style="fill-rule:evenodd;clip-rule:evenodd;stroke-linecap:round;stroke-linejoin:round;stroke-miterlimit:1.5;">
    <g transform="matrix(1,0,0,1,-436.8,-362.202)">
        <g transform="matrix(1.09055,0,-5.45199e-16,1.09055,395.056,313.421)">
            <path d="M38.874,51.287C38.874,47.995 41.542,45.326 44.834,45.326L44.834,45.326C48.126,45.326 50.794,47.995 50.794,51.287L50.794,51.287C50.794,54.578 48.126,57.247 44.834,57.247L44.834,57.247C41.542,57.247 38.874,54.578 38.874,51.287L38.874,51.287Z" style="fill:none;"/>
            <clipPath id="_clip1">
                <path d="M38.874,51.287C38.874,47.995 41.542,45.326 44.834,45.326L44.834,45.326C48.126,45.326 50.794,47.995 50.794,51.287L50.794,51.287C50.794,54.578 48.126,57.247 44.834,57.247L44.834,57.247C41.542,57.247 38.874,54.578 38.874,51.287L38.874,51.287Z"/>
            </clipPath>
            <g clip-path="url(#_clip1)">
                <g transform="matrix(-1.22768,-1.86978e-16,-1.5685e-16,-0.688745,111.129,88.0393)">
                    <path d="M54,49L54,53" style="fill:none;stroke:rgb(182, 227, 225);stroke-width:1.2px;"/>
                </g>
                <g transform="matrix(-1.22768,-2.49965e-16,-2.72842e-16,-0.92076,111.129,97.8808)">
                    <path d="M53.35,53C53.35,52.522 53.641,52.133 54,52.133C54.359,52.133 54.65,52.522 54.65,53C54.65,53.478 54.359,53.867 54,53.867C53.641,53.867 53.35,53.478 53.35,53Z" style="fill:rgb(182, 227, 225);"/>
                </g>
            </g>
            <path d="M38.874,51.287C38.874,47.995 41.542,45.326 44.834,45.326L44.834,45.326C48.126,45.326 50.794,47.995 50.794,51.287L50.794,51.287C50.794,54.578 48.126,57.247 44.834,57.247L44.834,57.247C41.542,57.247 38.874,54.578 38.874,51.287L38.874,51.287Z" style="fill:none;stroke:rgb(182, 227, 225);stroke-width:1.19px;"/>
        </g>
    </g>
</svg>
